<svg width="24" height="24" viewBox="0 0 24 24" fill="none" xmlns="http://www.w3.org/2000/svg">
<g id="Iconly/Curved/Light/Hide">
<g id="Hide">
<path id="Stroke 1" d="M6.42 17.3091C4.19 15.9153 2.75 13.8149 2.75 11.9723C2.75 8.84086 6.89 5.00293 12 5.00293C14.09 5.00293 16.03 5.64259 17.59 6.63548" stroke="black" stroke-width="1.5" stroke-linecap="round" stroke-linejoin="round"/>
<path id="Stroke 3" d="M19.8498 8.6026C20.7408 9.68142 21.2598 10.8748 21.2598 11.9727C21.2598 15.1042 17.1098 18.9421 11.9998 18.9421C11.0898 18.9421 10.2008 18.818 9.36975 18.5984" stroke="black" stroke-width="1.5" stroke-linecap="round" stroke-linejoin="round"/>
<path id="Stroke 5" d="M9.76572 14.0987C9.17072 13.5363 8.83772 12.7697 8.84072 11.9706C8.83672 10.3046 10.2487 8.95087 11.9947 8.94801C12.8347 8.9461 13.6407 9.26402 14.2347 9.83111" stroke="black" stroke-width="1.5" stroke-linecap="round" stroke-linejoin="round"/>
<path id="Stroke 7" d="M15.1095 12.5063C14.8755 13.7398 13.8645 14.7069 12.5725 14.9332" stroke="black" stroke-width="1.5" stroke-linecap="round" stroke-linejoin="round"/>
<path id="Stroke 9" d="M19.8917 4.43976L4.11768 19.4994" stroke="black" stroke-width="1.5" stroke-linecap="round" stroke-linejoin="round"/>
</g>
</g>
</svg>
