<svg width="31" height="29" viewBox="0 0 31 29" fill="none" xmlns="http://www.w3.org/2000/svg">
<g id="Group 36981">
<path id="Fill 635" opacity="0.4" fill-rule="evenodd" clip-rule="evenodd" d="M15.3445 0.0834961C4.23983 0.0834961 0.302734 3.84228 0.302734 14.4441C0.302734 25.0458 4.23983 28.8046 15.3445 28.8046C26.4492 28.8046 30.3863 25.0458 30.3863 14.4441C30.3863 3.84228 26.4492 0.0834961 15.3445 0.0834961Z" fill="#50E543"/>
<path id="Fill 663" d="M14.3281 18.7189L21.6561 11.7286C22.1082 11.2971 22.1082 10.5974 21.6561 10.1659C21.2041 9.73581 20.4713 9.73433 20.0193 10.1659L13.5104 16.3755L10.6702 13.661C10.2197 13.2324 9.48692 13.2295 9.03336 13.661C8.58133 14.0926 8.58133 14.7922 9.03336 15.2238L12.6912 18.7189C12.9087 18.9266 13.2034 19.0429 13.5104 19.0429C13.8174 19.0429 14.1105 18.9266 14.3281 18.7189Z" fill="#50E543"/>
</g>
</svg>
